<?xml version="1.0" encoding="utf-8" standalone="no"?>
<!DOCTYPE svg PUBLIC "-//W3C//DTD SVG 1.1//EN"
  "http://www.w3.org/Graphics/SVG/1.1/DTD/svg11.dtd">
<svg xmlns:xlink="http://www.w3.org/1999/xlink" width="1067.356513pt" height="347.446688pt" viewBox="0 0 1067.356513 347.446688" xmlns="http://www.w3.org/2000/svg" version="1.1">
 <metadata>
  <rdf:RDF xmlns:dc="http://purl.org/dc/elements/1.1/" xmlns:cc="http://creativecommons.org/ns#" xmlns:rdf="http://www.w3.org/1999/02/22-rdf-syntax-ns#">
   <cc:Work>
    <dc:type rdf:resource="http://purl.org/dc/dcmitype/StillImage"/>
    <dc:date>2026-02-27T16:23:55.808387</dc:date>
    <dc:format>image/svg+xml</dc:format>
    <dc:creator>
     <cc:Agent>
      <dc:title>Matplotlib v3.7.2, https://matplotlib.org/</dc:title>
     </cc:Agent>
    </dc:creator>
   </cc:Work>
  </rdf:RDF>
 </metadata>
 <defs>
  <style type="text/css">*{stroke-linejoin: round; stroke-linecap: butt}</style>
 </defs>
 <g id="figure_1">
  <g id="patch_1">
   <path d="M 0 347.446688 
L 1067.356513 347.446688 
L 1067.356513 0 
L 0 0 
z
" style="fill: #ffffff"/>
  </g>
  <g id="axes_1">
   <g id="patch_2">
    <path d="M 63.993313 294.96195 
L 387.062113 294.96195 
L 387.062113 30.37875 
L 63.993313 30.37875 
z
" style="fill: #ffffff"/>
   </g>
   <g id="matplotlib.axis_1">
    <g id="xtick_1">
     <g id="line2d_1">
      <path d="M 113.084404 294.96195 
L 113.084404 30.37875 
" clip-path="url(#paa28e2f880)" style="fill: none; stroke: #cccccc; stroke-width: 0.8; stroke-linecap: round"/>
     </g>
     <g id="text_1">
      <!-- 0.94 -->
      <g style="fill: #262626" transform="translate(101.952748 311.450488) scale(0.1144 -0.1144)">
       <defs>
        <path id="ArialMT-30" d="M 266 2259 
Q 266 3072 433 3567 
Q 600 4063 929 4331 
Q 1259 4600 1759 4600 
Q 2128 4600 2406 4451 
Q 2684 4303 2865 4023 
Q 3047 3744 3150 3342 
Q 3253 2941 3253 2259 
Q 3253 1453 3087 958 
Q 2922 463 2592 192 
Q 2263 -78 1759 -78 
Q 1097 -78 719 397 
Q 266 969 266 2259 
z
M 844 2259 
Q 844 1131 1108 757 
Q 1372 384 1759 384 
Q 2147 384 2411 759 
Q 2675 1134 2675 2259 
Q 2675 3391 2411 3762 
Q 2147 4134 1753 4134 
Q 1366 4134 1134 3806 
Q 844 3388 844 2259 
z
" transform="scale(0.015625)"/>
        <path id="ArialMT-2e" d="M 581 0 
L 581 641 
L 1222 641 
L 1222 0 
L 581 0 
z
" transform="scale(0.015625)"/>
        <path id="ArialMT-39" d="M 350 1059 
L 891 1109 
Q 959 728 1153 556 
Q 1347 384 1650 384 
Q 1909 384 2104 503 
Q 2300 622 2425 820 
Q 2550 1019 2634 1356 
Q 2719 1694 2719 2044 
Q 2719 2081 2716 2156 
Q 2547 1888 2255 1720 
Q 1963 1553 1622 1553 
Q 1053 1553 659 1965 
Q 266 2378 266 3053 
Q 266 3750 677 4175 
Q 1088 4600 1706 4600 
Q 2153 4600 2523 4359 
Q 2894 4119 3086 3673 
Q 3278 3228 3278 2384 
Q 3278 1506 3087 986 
Q 2897 466 2520 194 
Q 2144 -78 1638 -78 
Q 1100 -78 759 220 
Q 419 519 350 1059 
z
M 2653 3081 
Q 2653 3566 2395 3850 
Q 2138 4134 1775 4134 
Q 1400 4134 1122 3828 
Q 844 3522 844 3034 
Q 844 2597 1108 2323 
Q 1372 2050 1759 2050 
Q 2150 2050 2401 2323 
Q 2653 2597 2653 3081 
z
" transform="scale(0.015625)"/>
        <path id="ArialMT-34" d="M 2069 0 
L 2069 1097 
L 81 1097 
L 81 1613 
L 2172 4581 
L 2631 4581 
L 2631 1613 
L 3250 1613 
L 3250 1097 
L 2631 1097 
L 2631 0 
L 2069 0 
z
M 2069 1613 
L 2069 3678 
L 634 1613 
L 2069 1613 
z
" transform="scale(0.015625)"/>
       </defs>
       <use xlink:href="#ArialMT-30"/>
       <use xlink:href="#ArialMT-2e" x="55.615234"/>
       <use xlink:href="#ArialMT-39" x="83.398438"/>
       <use xlink:href="#ArialMT-34" x="139.013672"/>
      </g>
     </g>
    </g>
    <g id="xtick_2">
     <g id="line2d_2">
      <path d="M 174.786315 294.96195 
L 174.786315 30.37875 
" clip-path="url(#paa28e2f880)" style="fill: none; stroke: #cccccc; stroke-width: 0.8; stroke-linecap: round"/>
     </g>
     <g id="text_2">
      <!-- 0.96 -->
      <g style="fill: #262626" transform="translate(163.654659 311.450488) scale(0.1144 -0.1144)">
       <defs>
        <path id="ArialMT-36" d="M 3184 3459 
L 2625 3416 
Q 2550 3747 2413 3897 
Q 2184 4138 1850 4138 
Q 1581 4138 1378 3988 
Q 1113 3794 959 3422 
Q 806 3050 800 2363 
Q 1003 2672 1297 2822 
Q 1591 2972 1913 2972 
Q 2475 2972 2870 2558 
Q 3266 2144 3266 1488 
Q 3266 1056 3080 686 
Q 2894 316 2569 119 
Q 2244 -78 1831 -78 
Q 1128 -78 684 439 
Q 241 956 241 2144 
Q 241 3472 731 4075 
Q 1159 4600 1884 4600 
Q 2425 4600 2770 4297 
Q 3116 3994 3184 3459 
z
M 888 1484 
Q 888 1194 1011 928 
Q 1134 663 1356 523 
Q 1578 384 1822 384 
Q 2178 384 2434 671 
Q 2691 959 2691 1453 
Q 2691 1928 2437 2201 
Q 2184 2475 1800 2475 
Q 1419 2475 1153 2201 
Q 888 1928 888 1484 
z
" transform="scale(0.015625)"/>
       </defs>
       <use xlink:href="#ArialMT-30"/>
       <use xlink:href="#ArialMT-2e" x="55.615234"/>
       <use xlink:href="#ArialMT-39" x="83.398438"/>
       <use xlink:href="#ArialMT-36" x="139.013672"/>
      </g>
     </g>
    </g>
    <g id="xtick_3">
     <g id="line2d_3">
      <path d="M 236.488226 294.96195 
L 236.488226 30.37875 
" clip-path="url(#paa28e2f880)" style="fill: none; stroke: #cccccc; stroke-width: 0.8; stroke-linecap: round"/>
     </g>
     <g id="text_3">
      <!-- 0.98 -->
      <g style="fill: #262626" transform="translate(225.35657 311.450488) scale(0.1144 -0.1144)">
       <defs>
        <path id="ArialMT-38" d="M 1131 2484 
Q 781 2613 612 2850 
Q 444 3088 444 3419 
Q 444 3919 803 4259 
Q 1163 4600 1759 4600 
Q 2359 4600 2725 4251 
Q 3091 3903 3091 3403 
Q 3091 3084 2923 2848 
Q 2756 2613 2416 2484 
Q 2838 2347 3058 2040 
Q 3278 1734 3278 1309 
Q 3278 722 2862 322 
Q 2447 -78 1769 -78 
Q 1091 -78 675 323 
Q 259 725 259 1325 
Q 259 1772 486 2073 
Q 713 2375 1131 2484 
z
M 1019 3438 
Q 1019 3113 1228 2906 
Q 1438 2700 1772 2700 
Q 2097 2700 2305 2904 
Q 2513 3109 2513 3406 
Q 2513 3716 2298 3927 
Q 2084 4138 1766 4138 
Q 1444 4138 1231 3931 
Q 1019 3725 1019 3438 
z
M 838 1322 
Q 838 1081 952 856 
Q 1066 631 1291 507 
Q 1516 384 1775 384 
Q 2178 384 2440 643 
Q 2703 903 2703 1303 
Q 2703 1709 2433 1975 
Q 2163 2241 1756 2241 
Q 1359 2241 1098 1978 
Q 838 1716 838 1322 
z
" transform="scale(0.015625)"/>
       </defs>
       <use xlink:href="#ArialMT-30"/>
       <use xlink:href="#ArialMT-2e" x="55.615234"/>
       <use xlink:href="#ArialMT-39" x="83.398438"/>
       <use xlink:href="#ArialMT-38" x="139.013672"/>
      </g>
     </g>
    </g>
    <g id="xtick_4">
     <g id="line2d_4">
      <path d="M 298.190138 294.96195 
L 298.190138 30.37875 
" clip-path="url(#paa28e2f880)" style="fill: none; stroke: #cccccc; stroke-width: 0.8; stroke-linecap: round"/>
     </g>
     <g id="text_4">
      <!-- 1.00 -->
      <g style="fill: #262626" transform="translate(287.058481 311.450488) scale(0.1144 -0.1144)">
       <defs>
        <path id="ArialMT-31" d="M 2384 0 
L 1822 0 
L 1822 3584 
Q 1619 3391 1289 3197 
Q 959 3003 697 2906 
L 697 3450 
Q 1169 3672 1522 3987 
Q 1875 4303 2022 4600 
L 2384 4600 
L 2384 0 
z
" transform="scale(0.015625)"/>
       </defs>
       <use xlink:href="#ArialMT-31"/>
       <use xlink:href="#ArialMT-2e" x="55.615234"/>
       <use xlink:href="#ArialMT-30" x="83.398438"/>
       <use xlink:href="#ArialMT-30" x="139.013672"/>
      </g>
     </g>
    </g>
    <g id="xtick_5">
     <g id="line2d_5">
      <path d="M 359.892049 294.96195 
L 359.892049 30.37875 
" clip-path="url(#paa28e2f880)" style="fill: none; stroke: #cccccc; stroke-width: 0.8; stroke-linecap: round"/>
     </g>
     <g id="text_5">
      <!-- 1.02 -->
      <g style="fill: #262626" transform="translate(348.760393 311.450488) scale(0.1144 -0.1144)">
       <defs>
        <path id="ArialMT-32" d="M 3222 541 
L 3222 0 
L 194 0 
Q 188 203 259 391 
Q 375 700 629 1000 
Q 884 1300 1366 1694 
Q 2113 2306 2375 2664 
Q 2638 3022 2638 3341 
Q 2638 3675 2398 3904 
Q 2159 4134 1775 4134 
Q 1369 4134 1125 3890 
Q 881 3647 878 3216 
L 300 3275 
Q 359 3922 746 4261 
Q 1134 4600 1788 4600 
Q 2447 4600 2831 4234 
Q 3216 3869 3216 3328 
Q 3216 3053 3103 2787 
Q 2991 2522 2730 2228 
Q 2469 1934 1863 1422 
Q 1356 997 1212 845 
Q 1069 694 975 541 
L 3222 541 
z
" transform="scale(0.015625)"/>
       </defs>
       <use xlink:href="#ArialMT-31"/>
       <use xlink:href="#ArialMT-2e" x="55.615234"/>
       <use xlink:href="#ArialMT-30" x="83.398438"/>
       <use xlink:href="#ArialMT-32" x="139.013672"/>
      </g>
     </g>
    </g>
    <g id="text_6">
     <!-- Voltage (p.u.) -->
     <g style="fill: #262626" transform="translate(150.422712 335.195438) scale(0.24 -0.24)">
      <defs>
       <path id="Arial-BoldMT-56" d="M 1634 0 
L -3 4581 
L 1000 4581 
L 2159 1191 
L 3281 4581 
L 4263 4581 
L 2622 0 
L 1634 0 
z
" transform="scale(0.015625)"/>
       <path id="Arial-BoldMT-6f" d="M 256 1706 
Q 256 2144 472 2553 
Q 688 2963 1083 3178 
Q 1478 3394 1966 3394 
Q 2719 3394 3200 2905 
Q 3681 2416 3681 1669 
Q 3681 916 3195 420 
Q 2709 -75 1972 -75 
Q 1516 -75 1102 131 
Q 688 338 472 736 
Q 256 1134 256 1706 
z
M 1156 1659 
Q 1156 1166 1390 903 
Q 1625 641 1969 641 
Q 2313 641 2545 903 
Q 2778 1166 2778 1666 
Q 2778 2153 2545 2415 
Q 2313 2678 1969 2678 
Q 1625 2678 1390 2415 
Q 1156 2153 1156 1659 
z
" transform="scale(0.015625)"/>
       <path id="Arial-BoldMT-6c" d="M 459 0 
L 459 4581 
L 1338 4581 
L 1338 0 
L 459 0 
z
" transform="scale(0.015625)"/>
       <path id="Arial-BoldMT-74" d="M 1981 3319 
L 1981 2619 
L 1381 2619 
L 1381 1281 
Q 1381 875 1398 808 
Q 1416 741 1477 697 
Q 1538 653 1625 653 
Q 1747 653 1978 738 
L 2053 56 
Q 1747 -75 1359 -75 
Q 1122 -75 931 4 
Q 741 84 652 211 
Q 563 338 528 553 
Q 500 706 500 1172 
L 500 2619 
L 97 2619 
L 97 3319 
L 500 3319 
L 500 3978 
L 1381 4491 
L 1381 3319 
L 1981 3319 
z
" transform="scale(0.015625)"/>
       <path id="Arial-BoldMT-61" d="M 1116 2306 
L 319 2450 
Q 453 2931 781 3162 
Q 1109 3394 1756 3394 
Q 2344 3394 2631 3255 
Q 2919 3116 3036 2902 
Q 3153 2688 3153 2116 
L 3144 1091 
Q 3144 653 3186 445 
Q 3228 238 3344 0 
L 2475 0 
Q 2441 88 2391 259 
Q 2369 338 2359 363 
Q 2134 144 1878 34 
Q 1622 -75 1331 -75 
Q 819 -75 523 203 
Q 228 481 228 906 
Q 228 1188 362 1408 
Q 497 1628 739 1745 
Q 981 1863 1438 1950 
Q 2053 2066 2291 2166 
L 2291 2253 
Q 2291 2506 2166 2614 
Q 2041 2722 1694 2722 
Q 1459 2722 1328 2630 
Q 1197 2538 1116 2306 
z
M 2291 1594 
Q 2122 1538 1756 1459 
Q 1391 1381 1278 1306 
Q 1106 1184 1106 997 
Q 1106 813 1243 678 
Q 1381 544 1594 544 
Q 1831 544 2047 700 
Q 2206 819 2256 991 
Q 2291 1103 2291 1419 
L 2291 1594 
z
" transform="scale(0.015625)"/>
       <path id="Arial-BoldMT-67" d="M 378 -219 
L 1381 -341 
Q 1406 -516 1497 -581 
Q 1622 -675 1891 -675 
Q 2234 -675 2406 -572 
Q 2522 -503 2581 -350 
Q 2622 -241 2622 53 
L 2622 538 
Q 2228 0 1628 0 
Q 959 0 569 566 
Q 263 1013 263 1678 
Q 263 2513 664 2953 
Q 1066 3394 1663 3394 
Q 2278 3394 2678 2853 
L 2678 3319 
L 3500 3319 
L 3500 341 
Q 3500 -247 3403 -537 
Q 3306 -828 3131 -993 
Q 2956 -1159 2664 -1253 
Q 2372 -1347 1925 -1347 
Q 1081 -1347 728 -1058 
Q 375 -769 375 -325 
Q 375 -281 378 -219 
z
M 1163 1728 
Q 1163 1200 1367 954 
Q 1572 709 1872 709 
Q 2194 709 2416 961 
Q 2638 1213 2638 1706 
Q 2638 2222 2425 2472 
Q 2213 2722 1888 2722 
Q 1572 2722 1367 2476 
Q 1163 2231 1163 1728 
z
" transform="scale(0.015625)"/>
       <path id="Arial-BoldMT-65" d="M 2381 1056 
L 3256 909 
Q 3088 428 2723 176 
Q 2359 -75 1813 -75 
Q 947 -75 531 491 
Q 203 944 203 1634 
Q 203 2459 634 2926 
Q 1066 3394 1725 3394 
Q 2466 3394 2894 2905 
Q 3322 2416 3303 1406 
L 1103 1406 
Q 1113 1016 1316 798 
Q 1519 581 1822 581 
Q 2028 581 2168 693 
Q 2309 806 2381 1056 
z
M 2431 1944 
Q 2422 2325 2234 2523 
Q 2047 2722 1778 2722 
Q 1491 2722 1303 2513 
Q 1116 2303 1119 1944 
L 2431 1944 
z
" transform="scale(0.015625)"/>
       <path id="Arial-BoldMT-20" transform="scale(0.015625)"/>
       <path id="Arial-BoldMT-28" d="M 1916 -1347 
L 1313 -1347 
Q 834 -625 584 153 
Q 334 931 334 1659 
Q 334 2563 644 3369 
Q 913 4069 1325 4659 
L 1925 4659 
Q 1497 3713 1336 3048 
Q 1175 2384 1175 1641 
Q 1175 1128 1270 590 
Q 1366 53 1531 -431 
Q 1641 -750 1916 -1347 
z
" transform="scale(0.015625)"/>
       <path id="Arial-BoldMT-70" d="M 434 3319 
L 1253 3319 
L 1253 2831 
Q 1413 3081 1684 3237 
Q 1956 3394 2288 3394 
Q 2866 3394 3269 2941 
Q 3672 2488 3672 1678 
Q 3672 847 3265 386 
Q 2859 -75 2281 -75 
Q 2006 -75 1782 34 
Q 1559 144 1313 409 
L 1313 -1263 
L 434 -1263 
L 434 3319 
z
M 1303 1716 
Q 1303 1156 1525 889 
Q 1747 622 2066 622 
Q 2372 622 2575 867 
Q 2778 1113 2778 1672 
Q 2778 2194 2568 2447 
Q 2359 2700 2050 2700 
Q 1728 2700 1515 2451 
Q 1303 2203 1303 1716 
z
" transform="scale(0.015625)"/>
       <path id="Arial-BoldMT-2e" d="M 459 0 
L 459 878 
L 1338 878 
L 1338 0 
L 459 0 
z
" transform="scale(0.015625)"/>
       <path id="Arial-BoldMT-75" d="M 2644 0 
L 2644 497 
Q 2463 231 2167 78 
Q 1872 -75 1544 -75 
Q 1209 -75 943 72 
Q 678 219 559 484 
Q 441 750 441 1219 
L 441 3319 
L 1319 3319 
L 1319 1794 
Q 1319 1094 1367 936 
Q 1416 778 1544 686 
Q 1672 594 1869 594 
Q 2094 594 2272 717 
Q 2450 841 2515 1023 
Q 2581 1206 2581 1919 
L 2581 3319 
L 3459 3319 
L 3459 0 
L 2644 0 
z
" transform="scale(0.015625)"/>
       <path id="Arial-BoldMT-29" d="M 216 -1347 
Q 475 -791 581 -494 
Q 688 -197 778 190 
Q 869 578 912 926 
Q 956 1275 956 1641 
Q 956 2384 797 3048 
Q 638 3713 209 4659 
L 806 4659 
Q 1278 3988 1539 3234 
Q 1800 2481 1800 1706 
Q 1800 1053 1594 306 
Q 1359 -531 822 -1347 
L 216 -1347 
z
" transform="scale(0.015625)"/>
      </defs>
      <use xlink:href="#Arial-BoldMT-56"/>
      <use xlink:href="#Arial-BoldMT-6f" x="59.324219"/>
      <use xlink:href="#Arial-BoldMT-6c" x="120.408203"/>
      <use xlink:href="#Arial-BoldMT-74" x="148.191406"/>
      <use xlink:href="#Arial-BoldMT-61" x="181.492188"/>
      <use xlink:href="#Arial-BoldMT-67" x="237.107422"/>
      <use xlink:href="#Arial-BoldMT-65" x="298.191406"/>
      <use xlink:href="#Arial-BoldMT-20" x="353.806641"/>
      <use xlink:href="#Arial-BoldMT-28" x="381.589844"/>
      <use xlink:href="#Arial-BoldMT-70" x="414.890625"/>
      <use xlink:href="#Arial-BoldMT-2e" x="475.974609"/>
      <use xlink:href="#Arial-BoldMT-75" x="503.757812"/>
      <use xlink:href="#Arial-BoldMT-2e" x="564.841797"/>
      <use xlink:href="#Arial-BoldMT-29" x="592.625"/>
     </g>
    </g>
   </g>
   <g id="matplotlib.axis_2">
    <g id="ytick_1">
     <g id="line2d_6">
      <path d="M 63.993313 294.96195 
L 387.062113 294.96195 
" clip-path="url(#paa28e2f880)" style="fill: none; stroke: #cccccc; stroke-width: 0.8; stroke-linecap: round"/>
     </g>
     <g id="text_7">
      <!-- 0.00 -->
      <g style="fill: #262626" transform="translate(33.43 299.056219) scale(0.1144 -0.1144)">
       <use xlink:href="#ArialMT-30"/>
       <use xlink:href="#ArialMT-2e" x="55.615234"/>
       <use xlink:href="#ArialMT-30" x="83.398438"/>
       <use xlink:href="#ArialMT-30" x="139.013672"/>
      </g>
     </g>
    </g>
    <g id="ytick_2">
     <g id="line2d_7">
      <path d="M 63.993313 253.750348 
L 387.062113 253.750348 
" clip-path="url(#paa28e2f880)" style="fill: none; stroke: #cccccc; stroke-width: 0.8; stroke-linecap: round"/>
     </g>
     <g id="text_8">
      <!-- 0.05 -->
      <g style="fill: #262626" transform="translate(33.43 257.844617) scale(0.1144 -0.1144)">
       <defs>
        <path id="ArialMT-35" d="M 266 1200 
L 856 1250 
Q 922 819 1161 601 
Q 1400 384 1738 384 
Q 2144 384 2425 690 
Q 2706 997 2706 1503 
Q 2706 1984 2436 2262 
Q 2166 2541 1728 2541 
Q 1456 2541 1237 2417 
Q 1019 2294 894 2097 
L 366 2166 
L 809 4519 
L 3088 4519 
L 3088 3981 
L 1259 3981 
L 1013 2750 
Q 1425 3038 1878 3038 
Q 2478 3038 2890 2622 
Q 3303 2206 3303 1553 
Q 3303 931 2941 478 
Q 2500 -78 1738 -78 
Q 1113 -78 717 272 
Q 322 622 266 1200 
z
" transform="scale(0.015625)"/>
       </defs>
       <use xlink:href="#ArialMT-30"/>
       <use xlink:href="#ArialMT-2e" x="55.615234"/>
       <use xlink:href="#ArialMT-30" x="83.398438"/>
       <use xlink:href="#ArialMT-35" x="139.013672"/>
      </g>
     </g>
    </g>
    <g id="ytick_3">
     <g id="line2d_8">
      <path d="M 63.993313 212.538746 
L 387.062113 212.538746 
" clip-path="url(#paa28e2f880)" style="fill: none; stroke: #cccccc; stroke-width: 0.8; stroke-linecap: round"/>
     </g>
     <g id="text_9">
      <!-- 0.10 -->
      <g style="fill: #262626" transform="translate(33.43 216.633014) scale(0.1144 -0.1144)">
       <use xlink:href="#ArialMT-30"/>
       <use xlink:href="#ArialMT-2e" x="55.615234"/>
       <use xlink:href="#ArialMT-31" x="83.398438"/>
       <use xlink:href="#ArialMT-30" x="139.013672"/>
      </g>
     </g>
    </g>
    <g id="ytick_4">
     <g id="line2d_9">
      <path d="M 63.993313 171.327143 
L 387.062113 171.327143 
" clip-path="url(#paa28e2f880)" style="fill: none; stroke: #cccccc; stroke-width: 0.8; stroke-linecap: round"/>
     </g>
     <g id="text_10">
      <!-- 0.15 -->
      <g style="fill: #262626" transform="translate(33.43 175.421412) scale(0.1144 -0.1144)">
       <use xlink:href="#ArialMT-30"/>
       <use xlink:href="#ArialMT-2e" x="55.615234"/>
       <use xlink:href="#ArialMT-31" x="83.398438"/>
       <use xlink:href="#ArialMT-35" x="139.013672"/>
      </g>
     </g>
    </g>
    <g id="ytick_5">
     <g id="line2d_10">
      <path d="M 63.993313 130.115541 
L 387.062113 130.115541 
" clip-path="url(#paa28e2f880)" style="fill: none; stroke: #cccccc; stroke-width: 0.8; stroke-linecap: round"/>
     </g>
     <g id="text_11">
      <!-- 0.20 -->
      <g style="fill: #262626" transform="translate(33.43 134.20981) scale(0.1144 -0.1144)">
       <use xlink:href="#ArialMT-30"/>
       <use xlink:href="#ArialMT-2e" x="55.615234"/>
       <use xlink:href="#ArialMT-32" x="83.398438"/>
       <use xlink:href="#ArialMT-30" x="139.013672"/>
      </g>
     </g>
    </g>
    <g id="ytick_6">
     <g id="line2d_11">
      <path d="M 63.993313 88.903939 
L 387.062113 88.903939 
" clip-path="url(#paa28e2f880)" style="fill: none; stroke: #cccccc; stroke-width: 0.8; stroke-linecap: round"/>
     </g>
     <g id="text_12">
      <!-- 0.25 -->
      <g style="fill: #262626" transform="translate(33.43 92.998208) scale(0.1144 -0.1144)">
       <use xlink:href="#ArialMT-30"/>
       <use xlink:href="#ArialMT-2e" x="55.615234"/>
       <use xlink:href="#ArialMT-32" x="83.398438"/>
       <use xlink:href="#ArialMT-35" x="139.013672"/>
      </g>
     </g>
    </g>
    <g id="ytick_7">
     <g id="line2d_12">
      <path d="M 63.993313 47.692337 
L 387.062113 47.692337 
" clip-path="url(#paa28e2f880)" style="fill: none; stroke: #cccccc; stroke-width: 0.8; stroke-linecap: round"/>
     </g>
     <g id="text_13">
      <!-- 0.30 -->
      <g style="fill: #262626" transform="translate(33.43 51.786605) scale(0.1144 -0.1144)">
       <defs>
        <path id="ArialMT-33" d="M 269 1209 
L 831 1284 
Q 928 806 1161 595 
Q 1394 384 1728 384 
Q 2125 384 2398 659 
Q 2672 934 2672 1341 
Q 2672 1728 2419 1979 
Q 2166 2231 1775 2231 
Q 1616 2231 1378 2169 
L 1441 2663 
Q 1497 2656 1531 2656 
Q 1891 2656 2178 2843 
Q 2466 3031 2466 3422 
Q 2466 3731 2256 3934 
Q 2047 4138 1716 4138 
Q 1388 4138 1169 3931 
Q 950 3725 888 3313 
L 325 3413 
Q 428 3978 793 4289 
Q 1159 4600 1703 4600 
Q 2078 4600 2393 4439 
Q 2709 4278 2876 4000 
Q 3044 3722 3044 3409 
Q 3044 3113 2884 2869 
Q 2725 2625 2413 2481 
Q 2819 2388 3044 2092 
Q 3269 1797 3269 1353 
Q 3269 753 2831 336 
Q 2394 -81 1725 -81 
Q 1122 -81 723 278 
Q 325 638 269 1209 
z
" transform="scale(0.015625)"/>
       </defs>
       <use xlink:href="#ArialMT-30"/>
       <use xlink:href="#ArialMT-2e" x="55.615234"/>
       <use xlink:href="#ArialMT-33" x="83.398438"/>
       <use xlink:href="#ArialMT-30" x="139.013672"/>
      </g>
     </g>
    </g>
    <g id="text_14">
     <!-- Probability -->
     <g style="fill: #262626" transform="translate(24.37875 224.6766) rotate(-90) scale(0.24 -0.24)">
      <defs>
       <path id="Arial-BoldMT-50" d="M 466 0 
L 466 4581 
L 1950 4581 
Q 2794 4581 3050 4513 
Q 3444 4409 3709 4064 
Q 3975 3719 3975 3172 
Q 3975 2750 3822 2462 
Q 3669 2175 3433 2011 
Q 3197 1847 2953 1794 
Q 2622 1728 1994 1728 
L 1391 1728 
L 1391 0 
L 466 0 
z
M 1391 3806 
L 1391 2506 
L 1897 2506 
Q 2444 2506 2628 2578 
Q 2813 2650 2917 2803 
Q 3022 2956 3022 3159 
Q 3022 3409 2875 3571 
Q 2728 3734 2503 3775 
Q 2338 3806 1838 3806 
L 1391 3806 
z
" transform="scale(0.015625)"/>
       <path id="Arial-BoldMT-72" d="M 1300 0 
L 422 0 
L 422 3319 
L 1238 3319 
L 1238 2847 
Q 1447 3181 1614 3287 
Q 1781 3394 1994 3394 
Q 2294 3394 2572 3228 
L 2300 2463 
Q 2078 2606 1888 2606 
Q 1703 2606 1575 2504 
Q 1447 2403 1373 2137 
Q 1300 1872 1300 1025 
L 1300 0 
z
" transform="scale(0.015625)"/>
       <path id="Arial-BoldMT-62" d="M 422 0 
L 422 4581 
L 1300 4581 
L 1300 2931 
Q 1706 3394 2263 3394 
Q 2869 3394 3266 2955 
Q 3663 2516 3663 1694 
Q 3663 844 3258 384 
Q 2853 -75 2275 -75 
Q 1991 -75 1714 67 
Q 1438 209 1238 488 
L 1238 0 
L 422 0 
z
M 1294 1731 
Q 1294 1216 1456 969 
Q 1684 619 2063 619 
Q 2353 619 2558 867 
Q 2763 1116 2763 1650 
Q 2763 2219 2556 2470 
Q 2350 2722 2028 2722 
Q 1713 2722 1503 2476 
Q 1294 2231 1294 1731 
z
" transform="scale(0.015625)"/>
       <path id="Arial-BoldMT-69" d="M 459 3769 
L 459 4581 
L 1338 4581 
L 1338 3769 
L 459 3769 
z
M 459 0 
L 459 3319 
L 1338 3319 
L 1338 0 
L 459 0 
z
" transform="scale(0.015625)"/>
       <path id="Arial-BoldMT-79" d="M 44 3319 
L 978 3319 
L 1772 963 
L 2547 3319 
L 3456 3319 
L 2284 125 
L 2075 -453 
Q 1959 -744 1854 -897 
Q 1750 -1050 1614 -1145 
Q 1478 -1241 1279 -1294 
Q 1081 -1347 831 -1347 
Q 578 -1347 334 -1294 
L 256 -606 
Q 463 -647 628 -647 
Q 934 -647 1081 -467 
Q 1228 -288 1306 -9 
L 44 3319 
z
" transform="scale(0.015625)"/>
      </defs>
      <use xlink:href="#Arial-BoldMT-50"/>
      <use xlink:href="#Arial-BoldMT-72" x="66.699219"/>
      <use xlink:href="#Arial-BoldMT-6f" x="105.615234"/>
      <use xlink:href="#Arial-BoldMT-62" x="166.699219"/>
      <use xlink:href="#Arial-BoldMT-61" x="227.783203"/>
      <use xlink:href="#Arial-BoldMT-62" x="283.398438"/>
      <use xlink:href="#Arial-BoldMT-69" x="344.482422"/>
      <use xlink:href="#Arial-BoldMT-6c" x="372.265625"/>
      <use xlink:href="#Arial-BoldMT-69" x="400.048828"/>
      <use xlink:href="#Arial-BoldMT-74" x="427.832031"/>
      <use xlink:href="#Arial-BoldMT-79" x="461.132812"/>
     </g>
    </g>
   </g>
   <g id="patch_3">
    <path d="M 86.954898 294.96195 
L 104.111421 294.96195 
L 104.111421 294.916228 
L 86.954898 294.916228 
z
" clip-path="url(#paa28e2f880)" style="fill: #64b5f6; fill-opacity: 0.7; stroke: #000000; stroke-width: 0.8; stroke-linejoin: miter"/>
   </g>
   <g id="patch_4">
    <path d="M 104.111421 294.96195 
L 121.267944 294.96195 
L 121.267944 294.895445 
L 104.111421 294.895445 
z
" clip-path="url(#paa28e2f880)" style="fill: #64b5f6; fill-opacity: 0.7; stroke: #000000; stroke-width: 0.8; stroke-linejoin: miter"/>
   </g>
   <g id="patch_5">
    <path d="M 121.267944 294.96195 
L 138.424467 294.96195 
L 138.424467 294.820626 
L 121.267944 294.820626 
z
" clip-path="url(#paa28e2f880)" style="fill: #64b5f6; fill-opacity: 0.7; stroke: #000000; stroke-width: 0.8; stroke-linejoin: miter"/>
   </g>
   <g id="patch_6">
    <path d="M 138.424467 294.96195 
L 155.58099 294.96195 
L 155.58099 294.616954 
L 138.424467 294.616954 
z
" clip-path="url(#paa28e2f880)" style="fill: #64b5f6; fill-opacity: 0.7; stroke: #000000; stroke-width: 0.8; stroke-linejoin: miter"/>
   </g>
   <g id="patch_7">
    <path d="M 155.58099 294.96195 
L 172.737514 294.96195 
L 172.737514 294.350934 
L 155.58099 294.350934 
z
" clip-path="url(#paa28e2f880)" style="fill: #64b5f6; fill-opacity: 0.7; stroke: #000000; stroke-width: 0.8; stroke-linejoin: miter"/>
   </g>
   <g id="patch_8">
    <path d="M 172.737514 294.96195 
L 189.894037 294.96195 
L 189.894037 293.573654 
L 172.737514 293.573654 
z
" clip-path="url(#paa28e2f880)" style="fill: #64b5f6; fill-opacity: 0.7; stroke: #000000; stroke-width: 0.8; stroke-linejoin: miter"/>
   </g>
   <g id="patch_9">
    <path d="M 189.894037 294.96195 
L 207.05056 294.96195 
L 207.05056 290.772123 
L 189.894037 290.772123 
z
" clip-path="url(#paa28e2f880)" style="fill: #64b5f6; fill-opacity: 0.7; stroke: #000000; stroke-width: 0.8; stroke-linejoin: miter"/>
   </g>
   <g id="patch_10">
    <path d="M 207.05056 294.96195 
L 224.207083 294.96195 
L 224.207083 272.994455 
L 207.05056 272.994455 
z
" clip-path="url(#paa28e2f880)" style="fill: #64b5f6; fill-opacity: 0.7; stroke: #000000; stroke-width: 0.8; stroke-linejoin: miter"/>
   </g>
   <g id="patch_11">
    <path d="M 224.207083 294.96195 
L 241.363606 294.96195 
L 241.363606 232.62165 
L 224.207083 232.62165 
z
" clip-path="url(#paa28e2f880)" style="fill: #64b5f6; fill-opacity: 0.7; stroke: #000000; stroke-width: 0.8; stroke-linejoin: miter"/>
   </g>
   <g id="patch_12">
    <path d="M 241.363606 294.96195 
L 258.52013 294.96195 
L 258.52013 188.437265 
L 241.363606 188.437265 
z
" clip-path="url(#paa28e2f880)" style="fill: #64b5f6; fill-opacity: 0.7; stroke: #000000; stroke-width: 0.8; stroke-linejoin: miter"/>
   </g>
   <g id="patch_13">
    <path d="M 258.52013 294.96195 
L 275.676653 294.96195 
L 275.676653 147.328746 
L 258.52013 147.328746 
z
" clip-path="url(#paa28e2f880)" style="fill: #64b5f6; fill-opacity: 0.7; stroke: #000000; stroke-width: 0.8; stroke-linejoin: miter"/>
   </g>
   <g id="patch_14">
    <path d="M 275.676653 294.96195 
L 292.833176 294.96195 
L 292.833176 68.17926 
L 275.676653 68.17926 
z
" clip-path="url(#paa28e2f880)" style="fill: #64b5f6; fill-opacity: 0.7; stroke: #000000; stroke-width: 0.8; stroke-linejoin: miter"/>
   </g>
   <g id="patch_15">
    <path d="M 292.833176 294.96195 
L 309.989699 294.96195 
L 309.989699 42.97795 
L 292.833176 42.97795 
z
" clip-path="url(#paa28e2f880)" style="fill: #64b5f6; fill-opacity: 0.7; stroke: #000000; stroke-width: 0.8; stroke-linejoin: miter"/>
   </g>
   <g id="patch_16">
    <path d="M 309.989699 294.96195 
L 327.146223 294.96195 
L 327.146223 294.812313 
L 309.989699 294.812313 
z
" clip-path="url(#paa28e2f880)" style="fill: #64b5f6; fill-opacity: 0.7; stroke: #000000; stroke-width: 0.8; stroke-linejoin: miter"/>
   </g>
   <g id="patch_17">
    <path d="M 327.146223 294.96195 
L 344.302746 294.96195 
L 344.302746 294.899601 
L 327.146223 294.899601 
z
" clip-path="url(#paa28e2f880)" style="fill: #64b5f6; fill-opacity: 0.7; stroke: #000000; stroke-width: 0.8; stroke-linejoin: miter"/>
   </g>
   <g id="patch_18">
    <path d="M 63.993313 294.96195 
L 63.993313 30.37875 
" style="fill: none; stroke: #cccccc; stroke-linejoin: miter; stroke-linecap: square"/>
   </g>
   <g id="patch_19">
    <path d="M 387.062113 294.96195 
L 387.062113 30.37875 
" style="fill: none; stroke: #cccccc; stroke-linejoin: miter; stroke-linecap: square"/>
   </g>
   <g id="patch_20">
    <path d="M 63.993313 294.96195 
L 387.062113 294.96195 
" style="fill: none; stroke: #cccccc; stroke-linejoin: miter; stroke-linecap: square"/>
   </g>
   <g id="patch_21">
    <path d="M 63.993313 30.37875 
L 387.062113 30.37875 
" style="fill: none; stroke: #cccccc; stroke-linejoin: miter; stroke-linecap: square"/>
   </g>
   <g id="text_15">
    <!-- Phase A -->
    <g style="fill: #262626" transform="translate(178.624588 24.37875) scale(0.24 -0.24)">
     <defs>
      <path id="Arial-BoldMT-68" d="M 1334 4581 
L 1334 2897 
Q 1759 3394 2350 3394 
Q 2653 3394 2897 3281 
Q 3141 3169 3264 2994 
Q 3388 2819 3433 2606 
Q 3478 2394 3478 1947 
L 3478 0 
L 2600 0 
L 2600 1753 
Q 2600 2275 2550 2415 
Q 2500 2556 2373 2639 
Q 2247 2722 2056 2722 
Q 1838 2722 1666 2615 
Q 1494 2509 1414 2295 
Q 1334 2081 1334 1663 
L 1334 0 
L 456 0 
L 456 4581 
L 1334 4581 
z
" transform="scale(0.015625)"/>
      <path id="Arial-BoldMT-73" d="M 150 947 
L 1031 1081 
Q 1088 825 1259 692 
Q 1431 559 1741 559 
Q 2081 559 2253 684 
Q 2369 772 2369 919 
Q 2369 1019 2306 1084 
Q 2241 1147 2013 1200 
Q 950 1434 666 1628 
Q 272 1897 272 2375 
Q 272 2806 612 3100 
Q 953 3394 1669 3394 
Q 2350 3394 2681 3172 
Q 3013 2950 3138 2516 
L 2309 2363 
Q 2256 2556 2107 2659 
Q 1959 2763 1684 2763 
Q 1338 2763 1188 2666 
Q 1088 2597 1088 2488 
Q 1088 2394 1175 2328 
Q 1294 2241 1995 2081 
Q 2697 1922 2975 1691 
Q 3250 1456 3250 1038 
Q 3250 581 2869 253 
Q 2488 -75 1741 -75 
Q 1063 -75 667 200 
Q 272 475 150 947 
z
" transform="scale(0.015625)"/>
      <path id="Arial-BoldMT-41" d="M 4597 0 
L 3591 0 
L 3191 1041 
L 1359 1041 
L 981 0 
L 0 0 
L 1784 4581 
L 2763 4581 
L 4597 0 
z
M 2894 1813 
L 2263 3513 
L 1644 1813 
L 2894 1813 
z
" transform="scale(0.015625)"/>
     </defs>
     <use xlink:href="#Arial-BoldMT-50"/>
     <use xlink:href="#Arial-BoldMT-68" x="66.699219"/>
     <use xlink:href="#Arial-BoldMT-61" x="127.783203"/>
     <use xlink:href="#Arial-BoldMT-73" x="183.398438"/>
     <use xlink:href="#Arial-BoldMT-65" x="239.013672"/>
     <use xlink:href="#Arial-BoldMT-20" x="294.628906"/>
     <use xlink:href="#Arial-BoldMT-41" x="318.662109"/>
    </g>
   </g>
  </g>
  <g id="axes_2">
   <g id="patch_22">
    <path d="M 400.540512 294.96195 
L 723.609312 294.96195 
L 723.609312 30.37875 
L 400.540512 30.37875 
z
" style="fill: #ffffff"/>
   </g>
   <g id="matplotlib.axis_3">
    <g id="xtick_6">
     <g id="line2d_13">
      <path d="M 449.631604 294.96195 
L 449.631604 30.37875 
" clip-path="url(#p7d0d92efad)" style="fill: none; stroke: #cccccc; stroke-width: 0.8; stroke-linecap: round"/>
     </g>
     <g id="text_16">
      <!-- 0.94 -->
      <g style="fill: #262626" transform="translate(438.499948 311.450488) scale(0.1144 -0.1144)">
       <use xlink:href="#ArialMT-30"/>
       <use xlink:href="#ArialMT-2e" x="55.615234"/>
       <use xlink:href="#ArialMT-39" x="83.398438"/>
       <use xlink:href="#ArialMT-34" x="139.013672"/>
      </g>
     </g>
    </g>
    <g id="xtick_7">
     <g id="line2d_14">
      <path d="M 511.333515 294.96195 
L 511.333515 30.37875 
" clip-path="url(#p7d0d92efad)" style="fill: none; stroke: #cccccc; stroke-width: 0.8; stroke-linecap: round"/>
     </g>
     <g id="text_17">
      <!-- 0.96 -->
      <g style="fill: #262626" transform="translate(500.201859 311.450488) scale(0.1144 -0.1144)">
       <use xlink:href="#ArialMT-30"/>
       <use xlink:href="#ArialMT-2e" x="55.615234"/>
       <use xlink:href="#ArialMT-39" x="83.398438"/>
       <use xlink:href="#ArialMT-36" x="139.013672"/>
      </g>
     </g>
    </g>
    <g id="xtick_8">
     <g id="line2d_15">
      <path d="M 573.035426 294.96195 
L 573.035426 30.37875 
" clip-path="url(#p7d0d92efad)" style="fill: none; stroke: #cccccc; stroke-width: 0.8; stroke-linecap: round"/>
     </g>
     <g id="text_18">
      <!-- 0.98 -->
      <g style="fill: #262626" transform="translate(561.90377 311.450488) scale(0.1144 -0.1144)">
       <use xlink:href="#ArialMT-30"/>
       <use xlink:href="#ArialMT-2e" x="55.615234"/>
       <use xlink:href="#ArialMT-39" x="83.398438"/>
       <use xlink:href="#ArialMT-38" x="139.013672"/>
      </g>
     </g>
    </g>
    <g id="xtick_9">
     <g id="line2d_16">
      <path d="M 634.737338 294.96195 
L 634.737338 30.37875 
" clip-path="url(#p7d0d92efad)" style="fill: none; stroke: #cccccc; stroke-width: 0.8; stroke-linecap: round"/>
     </g>
     <g id="text_19">
      <!-- 1.00 -->
      <g style="fill: #262626" transform="translate(623.605681 311.450488) scale(0.1144 -0.1144)">
       <use xlink:href="#ArialMT-31"/>
       <use xlink:href="#ArialMT-2e" x="55.615234"/>
       <use xlink:href="#ArialMT-30" x="83.398438"/>
       <use xlink:href="#ArialMT-30" x="139.013672"/>
      </g>
     </g>
    </g>
    <g id="xtick_10">
     <g id="line2d_17">
      <path d="M 696.439249 294.96195 
L 696.439249 30.37875 
" clip-path="url(#p7d0d92efad)" style="fill: none; stroke: #cccccc; stroke-width: 0.8; stroke-linecap: round"/>
     </g>
     <g id="text_20">
      <!-- 1.02 -->
      <g style="fill: #262626" transform="translate(685.307593 311.450488) scale(0.1144 -0.1144)">
       <use xlink:href="#ArialMT-31"/>
       <use xlink:href="#ArialMT-2e" x="55.615234"/>
       <use xlink:href="#ArialMT-30" x="83.398438"/>
       <use xlink:href="#ArialMT-32" x="139.013672"/>
      </g>
     </g>
    </g>
    <g id="text_21">
     <!-- Voltage (p.u.) -->
     <g style="fill: #262626" transform="translate(486.969912 335.195438) scale(0.24 -0.24)">
      <use xlink:href="#Arial-BoldMT-56"/>
      <use xlink:href="#Arial-BoldMT-6f" x="59.324219"/>
      <use xlink:href="#Arial-BoldMT-6c" x="120.408203"/>
      <use xlink:href="#Arial-BoldMT-74" x="148.191406"/>
      <use xlink:href="#Arial-BoldMT-61" x="181.492188"/>
      <use xlink:href="#Arial-BoldMT-67" x="237.107422"/>
      <use xlink:href="#Arial-BoldMT-65" x="298.191406"/>
      <use xlink:href="#Arial-BoldMT-20" x="353.806641"/>
      <use xlink:href="#Arial-BoldMT-28" x="381.589844"/>
      <use xlink:href="#Arial-BoldMT-70" x="414.890625"/>
      <use xlink:href="#Arial-BoldMT-2e" x="475.974609"/>
      <use xlink:href="#Arial-BoldMT-75" x="503.757812"/>
      <use xlink:href="#Arial-BoldMT-2e" x="564.841797"/>
      <use xlink:href="#Arial-BoldMT-29" x="592.625"/>
     </g>
    </g>
   </g>
   <g id="matplotlib.axis_4">
    <g id="ytick_8">
     <g id="line2d_18">
      <path d="M 400.540512 294.96195 
L 723.609312 294.96195 
" clip-path="url(#p7d0d92efad)" style="fill: none; stroke: #cccccc; stroke-width: 0.8; stroke-linecap: round"/>
     </g>
    </g>
    <g id="ytick_9">
     <g id="line2d_19">
      <path d="M 400.540512 253.750348 
L 723.609312 253.750348 
" clip-path="url(#p7d0d92efad)" style="fill: none; stroke: #cccccc; stroke-width: 0.8; stroke-linecap: round"/>
     </g>
    </g>
    <g id="ytick_10">
     <g id="line2d_20">
      <path d="M 400.540512 212.538746 
L 723.609312 212.538746 
" clip-path="url(#p7d0d92efad)" style="fill: none; stroke: #cccccc; stroke-width: 0.8; stroke-linecap: round"/>
     </g>
    </g>
    <g id="ytick_11">
     <g id="line2d_21">
      <path d="M 400.540512 171.327143 
L 723.609312 171.327143 
" clip-path="url(#p7d0d92efad)" style="fill: none; stroke: #cccccc; stroke-width: 0.8; stroke-linecap: round"/>
     </g>
    </g>
    <g id="ytick_12">
     <g id="line2d_22">
      <path d="M 400.540512 130.115541 
L 723.609312 130.115541 
" clip-path="url(#p7d0d92efad)" style="fill: none; stroke: #cccccc; stroke-width: 0.8; stroke-linecap: round"/>
     </g>
    </g>
    <g id="ytick_13">
     <g id="line2d_23">
      <path d="M 400.540512 88.903939 
L 723.609312 88.903939 
" clip-path="url(#p7d0d92efad)" style="fill: none; stroke: #cccccc; stroke-width: 0.8; stroke-linecap: round"/>
     </g>
    </g>
    <g id="ytick_14">
     <g id="line2d_24">
      <path d="M 400.540512 47.692337 
L 723.609312 47.692337 
" clip-path="url(#p7d0d92efad)" style="fill: none; stroke: #cccccc; stroke-width: 0.8; stroke-linecap: round"/>
     </g>
    </g>
   </g>
   <g id="patch_23">
    <path d="M 415.225458 294.96195 
L 434.805385 294.96195 
L 434.805385 294.943072 
L 415.225458 294.943072 
z
" clip-path="url(#p7d0d92efad)" style="fill: #e57373; fill-opacity: 0.7; stroke: #000000; stroke-width: 0.8; stroke-linejoin: miter"/>
   </g>
   <g id="patch_24">
    <path d="M 434.805385 294.96195 
L 454.385312 294.96195 
L 454.385312 294.931745 
L 434.805385 294.931745 
z
" clip-path="url(#p7d0d92efad)" style="fill: #e57373; fill-opacity: 0.7; stroke: #000000; stroke-width: 0.8; stroke-linejoin: miter"/>
   </g>
   <g id="patch_25">
    <path d="M 454.385312 294.96195 
L 473.96524 294.96195 
L 473.96524 294.690108 
L 454.385312 294.690108 
z
" clip-path="url(#p7d0d92efad)" style="fill: #e57373; fill-opacity: 0.7; stroke: #000000; stroke-width: 0.8; stroke-linejoin: miter"/>
   </g>
   <g id="patch_26">
    <path d="M 473.96524 294.96195 
L 493.545167 294.96195 
L 493.545167 294.554187 
L 473.96524 294.554187 
z
" clip-path="url(#p7d0d92efad)" style="fill: #e57373; fill-opacity: 0.7; stroke: #000000; stroke-width: 0.8; stroke-linejoin: miter"/>
   </g>
   <g id="patch_27">
    <path d="M 493.545167 294.96195 
L 513.125094 294.96195 
L 513.125094 294.127547 
L 493.545167 294.127547 
z
" clip-path="url(#p7d0d92efad)" style="fill: #e57373; fill-opacity: 0.7; stroke: #000000; stroke-width: 0.8; stroke-linejoin: miter"/>
   </g>
   <g id="patch_28">
    <path d="M 513.125094 294.96195 
L 532.705022 294.96195 
L 532.705022 291.884851 
L 513.125094 291.884851 
z
" clip-path="url(#p7d0d92efad)" style="fill: #e57373; fill-opacity: 0.7; stroke: #000000; stroke-width: 0.8; stroke-linejoin: miter"/>
   </g>
   <g id="patch_29">
    <path d="M 532.705022 294.96195 
L 552.284949 294.96195 
L 552.284949 283.370915 
L 532.705022 283.370915 
z
" clip-path="url(#p7d0d92efad)" style="fill: #e57373; fill-opacity: 0.7; stroke: #000000; stroke-width: 0.8; stroke-linejoin: miter"/>
   </g>
   <g id="patch_30">
    <path d="M 552.284949 294.96195 
L 571.864876 294.96195 
L 571.864876 186.145922 
L 552.284949 186.145922 
z
" clip-path="url(#p7d0d92efad)" style="fill: #e57373; fill-opacity: 0.7; stroke: #000000; stroke-width: 0.8; stroke-linejoin: miter"/>
   </g>
   <g id="patch_31">
    <path d="M 571.864876 294.96195 
L 591.444803 294.96195 
L 591.444803 153.305916 
L 571.864876 153.305916 
z
" clip-path="url(#p7d0d92efad)" style="fill: #e57373; fill-opacity: 0.7; stroke: #000000; stroke-width: 0.8; stroke-linejoin: miter"/>
   </g>
   <g id="patch_32">
    <path d="M 591.444803 294.96195 
L 611.024731 294.96195 
L 611.024731 112.92985 
L 591.444803 112.92985 
z
" clip-path="url(#p7d0d92efad)" style="fill: #e57373; fill-opacity: 0.7; stroke: #000000; stroke-width: 0.8; stroke-linejoin: miter"/>
   </g>
   <g id="patch_33">
    <path d="M 611.024731 294.96195 
L 630.604658 294.96195 
L 630.604658 112.371064 
L 611.024731 112.371064 
z
" clip-path="url(#p7d0d92efad)" style="fill: #e57373; fill-opacity: 0.7; stroke: #000000; stroke-width: 0.8; stroke-linejoin: miter"/>
   </g>
   <g id="patch_34">
    <path d="M 630.604658 294.96195 
L 650.184585 294.96195 
L 650.184585 102.18077 
L 630.604658 102.18077 
z
" clip-path="url(#p7d0d92efad)" style="fill: #e57373; fill-opacity: 0.7; stroke: #000000; stroke-width: 0.8; stroke-linejoin: miter"/>
   </g>
   <g id="patch_35">
    <path d="M 650.184585 294.96195 
L 669.764512 294.96195 
L 669.764512 294.852458 
L 650.184585 294.852458 
z
" clip-path="url(#p7d0d92efad)" style="fill: #e57373; fill-opacity: 0.7; stroke: #000000; stroke-width: 0.8; stroke-linejoin: miter"/>
   </g>
   <g id="patch_36">
    <path d="M 669.764512 294.96195 
L 689.34444 294.96195 
L 689.34444 294.950623 
L 669.764512 294.950623 
z
" clip-path="url(#p7d0d92efad)" style="fill: #e57373; fill-opacity: 0.7; stroke: #000000; stroke-width: 0.8; stroke-linejoin: miter"/>
   </g>
   <g id="patch_37">
    <path d="M 689.34444 294.96195 
L 708.924367 294.96195 
L 708.924367 294.958174 
L 689.34444 294.958174 
z
" clip-path="url(#p7d0d92efad)" style="fill: #e57373; fill-opacity: 0.7; stroke: #000000; stroke-width: 0.8; stroke-linejoin: miter"/>
   </g>
   <g id="patch_38">
    <path d="M 400.540512 294.96195 
L 400.540512 30.37875 
" style="fill: none; stroke: #cccccc; stroke-linejoin: miter; stroke-linecap: square"/>
   </g>
   <g id="patch_39">
    <path d="M 723.609312 294.96195 
L 723.609312 30.37875 
" style="fill: none; stroke: #cccccc; stroke-linejoin: miter; stroke-linecap: square"/>
   </g>
   <g id="patch_40">
    <path d="M 400.540512 294.96195 
L 723.609312 294.96195 
" style="fill: none; stroke: #cccccc; stroke-linejoin: miter; stroke-linecap: square"/>
   </g>
   <g id="patch_41">
    <path d="M 400.540512 30.37875 
L 723.609312 30.37875 
" style="fill: none; stroke: #cccccc; stroke-linejoin: miter; stroke-linecap: square"/>
   </g>
   <g id="text_22">
    <!-- Phase B -->
    <g style="fill: #262626" transform="translate(514.721788 24.37875) scale(0.24 -0.24)">
     <defs>
      <path id="Arial-BoldMT-42" d="M 469 4581 
L 2300 4581 
Q 2844 4581 3111 4536 
Q 3378 4491 3589 4347 
Q 3800 4203 3940 3964 
Q 4081 3725 4081 3428 
Q 4081 3106 3907 2837 
Q 3734 2569 3438 2434 
Q 3856 2313 4081 2019 
Q 4306 1725 4306 1328 
Q 4306 1016 4161 720 
Q 4016 425 3764 248 
Q 3513 72 3144 31 
Q 2913 6 2028 0 
L 469 0 
L 469 4581 
z
M 1394 3819 
L 1394 2759 
L 2000 2759 
Q 2541 2759 2672 2775 
Q 2909 2803 3045 2939 
Q 3181 3075 3181 3297 
Q 3181 3509 3064 3642 
Q 2947 3775 2716 3803 
Q 2578 3819 1925 3819 
L 1394 3819 
z
M 1394 1997 
L 1394 772 
L 2250 772 
Q 2750 772 2884 800 
Q 3091 838 3220 983 
Q 3350 1128 3350 1372 
Q 3350 1578 3250 1722 
Q 3150 1866 2961 1931 
Q 2772 1997 2141 1997 
L 1394 1997 
z
" transform="scale(0.015625)"/>
     </defs>
     <use xlink:href="#Arial-BoldMT-50"/>
     <use xlink:href="#Arial-BoldMT-68" x="66.699219"/>
     <use xlink:href="#Arial-BoldMT-61" x="127.783203"/>
     <use xlink:href="#Arial-BoldMT-73" x="183.398438"/>
     <use xlink:href="#Arial-BoldMT-65" x="239.013672"/>
     <use xlink:href="#Arial-BoldMT-20" x="294.628906"/>
     <use xlink:href="#Arial-BoldMT-42" x="322.412109"/>
    </g>
   </g>
  </g>
  <g id="axes_3">
   <g id="patch_42">
    <path d="M 737.087712 294.96195 
L 1060.156512 294.96195 
L 1060.156512 30.37875 
L 737.087712 30.37875 
z
" style="fill: #ffffff"/>
   </g>
   <g id="matplotlib.axis_5">
    <g id="xtick_11">
     <g id="line2d_25">
      <path d="M 786.178804 294.96195 
L 786.178804 30.37875 
" clip-path="url(#p8b0ba36045)" style="fill: none; stroke: #cccccc; stroke-width: 0.8; stroke-linecap: round"/>
     </g>
     <g id="text_23">
      <!-- 0.94 -->
      <g style="fill: #262626" transform="translate(775.047148 311.450488) scale(0.1144 -0.1144)">
       <use xlink:href="#ArialMT-30"/>
       <use xlink:href="#ArialMT-2e" x="55.615234"/>
       <use xlink:href="#ArialMT-39" x="83.398438"/>
       <use xlink:href="#ArialMT-34" x="139.013672"/>
      </g>
     </g>
    </g>
    <g id="xtick_12">
     <g id="line2d_26">
      <path d="M 847.880715 294.96195 
L 847.880715 30.37875 
" clip-path="url(#p8b0ba36045)" style="fill: none; stroke: #cccccc; stroke-width: 0.8; stroke-linecap: round"/>
     </g>
     <g id="text_24">
      <!-- 0.96 -->
      <g style="fill: #262626" transform="translate(836.749059 311.450488) scale(0.1144 -0.1144)">
       <use xlink:href="#ArialMT-30"/>
       <use xlink:href="#ArialMT-2e" x="55.615234"/>
       <use xlink:href="#ArialMT-39" x="83.398438"/>
       <use xlink:href="#ArialMT-36" x="139.013672"/>
      </g>
     </g>
    </g>
    <g id="xtick_13">
     <g id="line2d_27">
      <path d="M 909.582626 294.96195 
L 909.582626 30.37875 
" clip-path="url(#p8b0ba36045)" style="fill: none; stroke: #cccccc; stroke-width: 0.8; stroke-linecap: round"/>
     </g>
     <g id="text_25">
      <!-- 0.98 -->
      <g style="fill: #262626" transform="translate(898.45097 311.450488) scale(0.1144 -0.1144)">
       <use xlink:href="#ArialMT-30"/>
       <use xlink:href="#ArialMT-2e" x="55.615234"/>
       <use xlink:href="#ArialMT-39" x="83.398438"/>
       <use xlink:href="#ArialMT-38" x="139.013672"/>
      </g>
     </g>
    </g>
    <g id="xtick_14">
     <g id="line2d_28">
      <path d="M 971.284538 294.96195 
L 971.284538 30.37875 
" clip-path="url(#p8b0ba36045)" style="fill: none; stroke: #cccccc; stroke-width: 0.8; stroke-linecap: round"/>
     </g>
     <g id="text_26">
      <!-- 1.00 -->
      <g style="fill: #262626" transform="translate(960.152881 311.450488) scale(0.1144 -0.1144)">
       <use xlink:href="#ArialMT-31"/>
       <use xlink:href="#ArialMT-2e" x="55.615234"/>
       <use xlink:href="#ArialMT-30" x="83.398438"/>
       <use xlink:href="#ArialMT-30" x="139.013672"/>
      </g>
     </g>
    </g>
    <g id="xtick_15">
     <g id="line2d_29">
      <path d="M 1032.986449 294.96195 
L 1032.986449 30.37875 
" clip-path="url(#p8b0ba36045)" style="fill: none; stroke: #cccccc; stroke-width: 0.8; stroke-linecap: round"/>
     </g>
     <g id="text_27">
      <!-- 1.02 -->
      <g style="fill: #262626" transform="translate(1021.854793 311.450488) scale(0.1144 -0.1144)">
       <use xlink:href="#ArialMT-31"/>
       <use xlink:href="#ArialMT-2e" x="55.615234"/>
       <use xlink:href="#ArialMT-30" x="83.398438"/>
       <use xlink:href="#ArialMT-32" x="139.013672"/>
      </g>
     </g>
    </g>
    <g id="text_28">
     <!-- Voltage (p.u.) -->
     <g style="fill: #262626" transform="translate(823.517112 335.195438) scale(0.24 -0.24)">
      <use xlink:href="#Arial-BoldMT-56"/>
      <use xlink:href="#Arial-BoldMT-6f" x="59.324219"/>
      <use xlink:href="#Arial-BoldMT-6c" x="120.408203"/>
      <use xlink:href="#Arial-BoldMT-74" x="148.191406"/>
      <use xlink:href="#Arial-BoldMT-61" x="181.492188"/>
      <use xlink:href="#Arial-BoldMT-67" x="237.107422"/>
      <use xlink:href="#Arial-BoldMT-65" x="298.191406"/>
      <use xlink:href="#Arial-BoldMT-20" x="353.806641"/>
      <use xlink:href="#Arial-BoldMT-28" x="381.589844"/>
      <use xlink:href="#Arial-BoldMT-70" x="414.890625"/>
      <use xlink:href="#Arial-BoldMT-2e" x="475.974609"/>
      <use xlink:href="#Arial-BoldMT-75" x="503.757812"/>
      <use xlink:href="#Arial-BoldMT-2e" x="564.841797"/>
      <use xlink:href="#Arial-BoldMT-29" x="592.625"/>
     </g>
    </g>
   </g>
   <g id="matplotlib.axis_6">
    <g id="ytick_15">
     <g id="line2d_30">
      <path d="M 737.087712 294.96195 
L 1060.156512 294.96195 
" clip-path="url(#p8b0ba36045)" style="fill: none; stroke: #cccccc; stroke-width: 0.8; stroke-linecap: round"/>
     </g>
    </g>
    <g id="ytick_16">
     <g id="line2d_31">
      <path d="M 737.087712 253.750348 
L 1060.156512 253.750348 
" clip-path="url(#p8b0ba36045)" style="fill: none; stroke: #cccccc; stroke-width: 0.8; stroke-linecap: round"/>
     </g>
    </g>
    <g id="ytick_17">
     <g id="line2d_32">
      <path d="M 737.087712 212.538746 
L 1060.156512 212.538746 
" clip-path="url(#p8b0ba36045)" style="fill: none; stroke: #cccccc; stroke-width: 0.8; stroke-linecap: round"/>
     </g>
    </g>
    <g id="ytick_18">
     <g id="line2d_33">
      <path d="M 737.087712 171.327143 
L 1060.156512 171.327143 
" clip-path="url(#p8b0ba36045)" style="fill: none; stroke: #cccccc; stroke-width: 0.8; stroke-linecap: round"/>
     </g>
    </g>
    <g id="ytick_19">
     <g id="line2d_34">
      <path d="M 737.087712 130.115541 
L 1060.156512 130.115541 
" clip-path="url(#p8b0ba36045)" style="fill: none; stroke: #cccccc; stroke-width: 0.8; stroke-linecap: round"/>
     </g>
    </g>
    <g id="ytick_20">
     <g id="line2d_35">
      <path d="M 737.087712 88.903939 
L 1060.156512 88.903939 
" clip-path="url(#p8b0ba36045)" style="fill: none; stroke: #cccccc; stroke-width: 0.8; stroke-linecap: round"/>
     </g>
    </g>
    <g id="ytick_21">
     <g id="line2d_36">
      <path d="M 737.087712 47.692337 
L 1060.156512 47.692337 
" clip-path="url(#p8b0ba36045)" style="fill: none; stroke: #cccccc; stroke-width: 0.8; stroke-linecap: round"/>
     </g>
    </g>
   </g>
   <g id="patch_43">
    <path d="M 770.026697 294.96195 
L 787.829605 294.96195 
L 787.829605 294.914375 
L 770.026697 294.914375 
z
" clip-path="url(#p8b0ba36045)" style="fill: #81c784; fill-opacity: 0.7; stroke: #000000; stroke-width: 0.8; stroke-linejoin: miter"/>
   </g>
   <g id="patch_44">
    <path d="M 787.829605 294.96195 
L 805.632513 294.96195 
L 805.632513 294.746033 
L 787.829605 294.746033 
z
" clip-path="url(#p8b0ba36045)" style="fill: #81c784; fill-opacity: 0.7; stroke: #000000; stroke-width: 0.8; stroke-linejoin: miter"/>
   </g>
   <g id="patch_45">
    <path d="M 805.632513 294.96195 
L 823.435421 294.96195 
L 823.435421 294.621606 
L 805.632513 294.621606 
z
" clip-path="url(#p8b0ba36045)" style="fill: #81c784; fill-opacity: 0.7; stroke: #000000; stroke-width: 0.8; stroke-linejoin: miter"/>
   </g>
   <g id="patch_46">
    <path d="M 823.435421 294.96195 
L 841.238328 294.96195 
L 841.238328 294.460583 
L 823.435421 294.460583 
z
" clip-path="url(#p8b0ba36045)" style="fill: #81c784; fill-opacity: 0.7; stroke: #000000; stroke-width: 0.8; stroke-linejoin: miter"/>
   </g>
   <g id="patch_47">
    <path d="M 841.238328 294.96195 
L 859.041236 294.96195 
L 859.041236 293.585937 
L 841.238328 293.585937 
z
" clip-path="url(#p8b0ba36045)" style="fill: #81c784; fill-opacity: 0.7; stroke: #000000; stroke-width: 0.8; stroke-linejoin: miter"/>
   </g>
   <g id="patch_48">
    <path d="M 859.041236 294.96195 
L 876.844144 294.96195 
L 876.844144 290.237393 
L 859.041236 290.237393 
z
" clip-path="url(#p8b0ba36045)" style="fill: #81c784; fill-opacity: 0.7; stroke: #000000; stroke-width: 0.8; stroke-linejoin: miter"/>
   </g>
   <g id="patch_49">
    <path d="M 876.844144 294.96195 
L 894.647052 294.96195 
L 894.647052 272.949395 
L 876.844144 272.949395 
z
" clip-path="url(#p8b0ba36045)" style="fill: #81c784; fill-opacity: 0.7; stroke: #000000; stroke-width: 0.8; stroke-linejoin: miter"/>
   </g>
   <g id="patch_50">
    <path d="M 894.647052 294.96195 
L 912.449959 294.96195 
L 912.449959 189.202875 
L 894.647052 189.202875 
z
" clip-path="url(#p8b0ba36045)" style="fill: #81c784; fill-opacity: 0.7; stroke: #000000; stroke-width: 0.8; stroke-linejoin: miter"/>
   </g>
   <g id="patch_51">
    <path d="M 912.449959 294.96195 
L 930.252867 294.96195 
L 930.252867 143.992051 
L 912.449959 143.992051 
z
" clip-path="url(#p8b0ba36045)" style="fill: #81c784; fill-opacity: 0.7; stroke: #000000; stroke-width: 0.8; stroke-linejoin: miter"/>
   </g>
   <g id="patch_52">
    <path d="M 930.252867 294.96195 
L 948.055775 294.96195 
L 948.055775 136.497169 
L 930.252867 136.497169 
z
" clip-path="url(#p8b0ba36045)" style="fill: #81c784; fill-opacity: 0.7; stroke: #000000; stroke-width: 0.8; stroke-linejoin: miter"/>
   </g>
   <g id="patch_53">
    <path d="M 948.055775 294.96195 
L 965.858683 294.96195 
L 965.858683 131.549376 
L 948.055775 131.549376 
z
" clip-path="url(#p8b0ba36045)" style="fill: #81c784; fill-opacity: 0.7; stroke: #000000; stroke-width: 0.8; stroke-linejoin: miter"/>
   </g>
   <g id="patch_54">
    <path d="M 965.858683 294.96195 
L 983.66159 294.96195 
L 983.66159 78.686307 
L 965.858683 78.686307 
z
" clip-path="url(#p8b0ba36045)" style="fill: #81c784; fill-opacity: 0.7; stroke: #000000; stroke-width: 0.8; stroke-linejoin: miter"/>
   </g>
   <g id="patch_55">
    <path d="M 983.66159 294.96195 
L 1001.464498 294.96195 
L 1001.464498 294.837523 
L 983.66159 294.837523 
z
" clip-path="url(#p8b0ba36045)" style="fill: #81c784; fill-opacity: 0.7; stroke: #000000; stroke-width: 0.8; stroke-linejoin: miter"/>
   </g>
   <g id="patch_56">
    <path d="M 1001.464498 294.96195 
L 1019.267406 294.96195 
L 1019.267406 294.95829 
L 1001.464498 294.95829 
z
" clip-path="url(#p8b0ba36045)" style="fill: #81c784; fill-opacity: 0.7; stroke: #000000; stroke-width: 0.8; stroke-linejoin: miter"/>
   </g>
   <g id="patch_57">
    <path d="M 1019.267406 294.96195 
L 1037.070314 294.96195 
L 1037.070314 294.95829 
L 1019.267406 294.95829 
z
" clip-path="url(#p8b0ba36045)" style="fill: #81c784; fill-opacity: 0.7; stroke: #000000; stroke-width: 0.8; stroke-linejoin: miter"/>
   </g>
   <g id="patch_58">
    <path d="M 737.087712 294.96195 
L 737.087712 30.37875 
" style="fill: none; stroke: #cccccc; stroke-linejoin: miter; stroke-linecap: square"/>
   </g>
   <g id="patch_59">
    <path d="M 1060.156512 294.96195 
L 1060.156512 30.37875 
" style="fill: none; stroke: #cccccc; stroke-linejoin: miter; stroke-linecap: square"/>
   </g>
   <g id="patch_60">
    <path d="M 737.087713 294.96195 
L 1060.156513 294.96195 
" style="fill: none; stroke: #cccccc; stroke-linejoin: miter; stroke-linecap: square"/>
   </g>
   <g id="patch_61">
    <path d="M 737.087713 30.37875 
L 1060.156513 30.37875 
" style="fill: none; stroke: #cccccc; stroke-linejoin: miter; stroke-linecap: square"/>
   </g>
   <g id="text_29">
    <!-- Phase C -->
    <g style="fill: #262626" transform="translate(851.268987 24.37875) scale(0.24 -0.24)">
     <defs>
      <path id="Arial-BoldMT-43" d="M 3397 1684 
L 4294 1400 
Q 4088 650 3608 286 
Q 3128 -78 2391 -78 
Q 1478 -78 890 545 
Q 303 1169 303 2250 
Q 303 3394 893 4026 
Q 1484 4659 2447 4659 
Q 3288 4659 3813 4163 
Q 4125 3869 4281 3319 
L 3366 3100 
Q 3284 3456 3026 3662 
Q 2769 3869 2400 3869 
Q 1891 3869 1573 3503 
Q 1256 3138 1256 2319 
Q 1256 1450 1568 1081 
Q 1881 713 2381 713 
Q 2750 713 3015 947 
Q 3281 1181 3397 1684 
z
" transform="scale(0.015625)"/>
     </defs>
     <use xlink:href="#Arial-BoldMT-50"/>
     <use xlink:href="#Arial-BoldMT-68" x="66.699219"/>
     <use xlink:href="#Arial-BoldMT-61" x="127.783203"/>
     <use xlink:href="#Arial-BoldMT-73" x="183.398438"/>
     <use xlink:href="#Arial-BoldMT-65" x="239.013672"/>
     <use xlink:href="#Arial-BoldMT-20" x="294.628906"/>
     <use xlink:href="#Arial-BoldMT-43" x="322.412109"/>
    </g>
   </g>
  </g>
 </g>
 <defs>
  <clipPath id="paa28e2f880">
   <rect x="63.993313" y="30.37875" width="323.0688" height="264.5832"/>
  </clipPath>
  <clipPath id="p7d0d92efad">
   <rect x="400.540512" y="30.37875" width="323.0688" height="264.5832"/>
  </clipPath>
  <clipPath id="p8b0ba36045">
   <rect x="737.087712" y="30.37875" width="323.0688" height="264.5832"/>
  </clipPath>
 </defs>
</svg>
